# xmcd
#
# Track frame offsets:
#	150
#	17729
#	38086
#	56676
#	70746
#
# Disc length: 1153 seconds
#
# Revision: 1
# Processed by: cddbd v1.5.2PL0 Copyright (c) Steve Scherf et al.
# Submitted via: audiograbber 1.83.01
#
DISCID=3a047f05
DTITLE=Puss n Boots - Dear Santa
DYEAR=2019
DGENRE=Alternative Country
TTITLE0=Christmas All Over Again
TTITLE1=The Great Romancer
TTITLE2=Christmas Butt
TTITLE3=It's Not Christmas 'Til You Come Home
TTITLE4=Silent Night
EXTD=
EXTT0=
EXTT1=
EXTT2=
EXTT3=
EXTT4=
PLAYORDER=
